<mxfile host="app.diagrams.net" agent="Mozilla/5.0 (Windows NT 10.0; Win64; x64; rv:136.0) Gecko/20100101 Firefox/136.0" version="26.2.14">
  <diagram name="Страница — 1" id="rJ-0COniGL9-NMT-AIH3">
    <mxGraphModel dx="2175" dy="2338" grid="1" gridSize="10" guides="1" tooltips="1" connect="1" arrows="1" fold="1" page="1" pageScale="1" pageWidth="827" pageHeight="1169" math="0" shadow="0">
      <root>
        <mxCell id="0" />
        <mxCell id="1" parent="0" />
        <mxCell id="QVx1Jq6RDN-TnkhL_hyi-1" value="ИИ" style="html=1;dashed=0;whiteSpace=wrap;shape=partialRectangle;right=0;left=0;" vertex="1" parent="1">
          <mxGeometry x="520" y="920" width="100" height="30" as="geometry" />
        </mxCell>
        <mxCell id="QVx1Jq6RDN-TnkhL_hyi-2" value="Врач" style="html=1;dashed=0;whiteSpace=wrap;" vertex="1" parent="1">
          <mxGeometry x="760" y="460" width="100" height="50" as="geometry" />
        </mxCell>
        <mxCell id="QVx1Jq6RDN-TnkhL_hyi-4" value="Каталог данных" style="html=1;dashed=0;whiteSpace=wrap;shape=partialRectangle;right=0;left=0;" vertex="1" parent="1">
          <mxGeometry x="500" y="665" width="100" height="30" as="geometry" />
        </mxCell>
        <mxCell id="QVx1Jq6RDN-TnkhL_hyi-6" value="Все данные" style="endArrow=classic;html=1;rounded=0;" edge="1" parent="1" source="QVx1Jq6RDN-TnkhL_hyi-1" target="QVx1Jq6RDN-TnkhL_hyi-26">
          <mxGeometry width="50" height="50" relative="1" as="geometry">
            <mxPoint x="590" y="600" as="sourcePoint" />
            <mxPoint x="640" y="550" as="targetPoint" />
            <mxPoint as="offset" />
          </mxGeometry>
        </mxCell>
        <mxCell id="QVx1Jq6RDN-TnkhL_hyi-7" value="Клиент" style="html=1;dashed=0;whiteSpace=wrap;" vertex="1" parent="1">
          <mxGeometry x="760" y="300" width="100" height="50" as="geometry" />
        </mxCell>
        <mxCell id="QVx1Jq6RDN-TnkhL_hyi-8" value="Медицинские данные" style="endArrow=classic;html=1;rounded=0;" edge="1" parent="1" source="QVx1Jq6RDN-TnkhL_hyi-7" target="QVx1Jq6RDN-TnkhL_hyi-2">
          <mxGeometry width="50" height="50" relative="1" as="geometry">
            <mxPoint x="590" y="600" as="sourcePoint" />
            <mxPoint x="640" y="550" as="targetPoint" />
          </mxGeometry>
        </mxCell>
        <mxCell id="QVx1Jq6RDN-TnkhL_hyi-9" value="Банк" style="html=1;dashed=0;whiteSpace=wrap;" vertex="1" parent="1">
          <mxGeometry x="564" y="300" width="100" height="50" as="geometry" />
        </mxCell>
        <mxCell id="QVx1Jq6RDN-TnkhL_hyi-10" value="&lt;div&gt;Финансовые&lt;/div&gt;&lt;div&gt;данные&lt;/div&gt;" style="endArrow=classic;html=1;rounded=0;" edge="1" parent="1" source="QVx1Jq6RDN-TnkhL_hyi-7" target="QVx1Jq6RDN-TnkhL_hyi-9">
          <mxGeometry width="50" height="50" relative="1" as="geometry">
            <mxPoint x="590" y="600" as="sourcePoint" />
            <mxPoint x="640" y="550" as="targetPoint" />
            <Array as="points">
              <mxPoint x="710" y="270" />
            </Array>
          </mxGeometry>
        </mxCell>
        <mxCell id="QVx1Jq6RDN-TnkhL_hyi-11" value="&lt;div&gt;Финансовые&lt;/div&gt;&lt;div&gt;данные&lt;/div&gt;" style="endArrow=classic;html=1;rounded=1;curved=0;" edge="1" parent="1" source="QVx1Jq6RDN-TnkhL_hyi-9" target="QVx1Jq6RDN-TnkhL_hyi-64">
          <mxGeometry x="-0.8218" y="-28" width="50" height="50" relative="1" as="geometry">
            <mxPoint x="590" y="600" as="sourcePoint" />
            <mxPoint x="640" y="550" as="targetPoint" />
            <Array as="points">
              <mxPoint x="610" y="225" />
            </Array>
            <mxPoint as="offset" />
          </mxGeometry>
        </mxCell>
        <mxCell id="QVx1Jq6RDN-TnkhL_hyi-12" value="Оператор" style="html=1;dashed=0;whiteSpace=wrap;" vertex="1" parent="1">
          <mxGeometry x="760" y="140" width="100" height="50" as="geometry" />
        </mxCell>
        <mxCell id="QVx1Jq6RDN-TnkhL_hyi-13" value="Медицинские данные" style="endArrow=classic;html=1;rounded=0;" edge="1" parent="1" source="QVx1Jq6RDN-TnkhL_hyi-7" target="QVx1Jq6RDN-TnkhL_hyi-12">
          <mxGeometry width="50" height="50" relative="1" as="geometry">
            <mxPoint x="710" y="600" as="sourcePoint" />
            <mxPoint x="760" y="550" as="targetPoint" />
          </mxGeometry>
        </mxCell>
        <mxCell id="QVx1Jq6RDN-TnkhL_hyi-16" value="Лечение" style="shape=ellipse;html=1;dashed=0;whiteSpace=wrap;aspect=fixed;perimeter=ellipsePerimeter;" vertex="1" parent="1">
          <mxGeometry x="1020" y="455" width="60" height="60" as="geometry" />
        </mxCell>
        <mxCell id="QVx1Jq6RDN-TnkhL_hyi-17" value="" style="endArrow=classic;html=1;rounded=1;curved=0;" edge="1" parent="1" source="QVx1Jq6RDN-TnkhL_hyi-16" target="QVx1Jq6RDN-TnkhL_hyi-69">
          <mxGeometry width="50" height="50" relative="1" as="geometry">
            <mxPoint x="1050" y="515" as="sourcePoint" />
            <mxPoint x="770" y="410" as="targetPoint" />
          </mxGeometry>
        </mxCell>
        <mxCell id="QVx1Jq6RDN-TnkhL_hyi-71" value="&lt;div&gt;Медицинские&lt;/div&gt;&lt;div&gt;данные&lt;/div&gt;&amp;nbsp;пациента" style="edgeLabel;html=1;align=center;verticalAlign=middle;resizable=0;points=[];" vertex="1" connectable="0" parent="QVx1Jq6RDN-TnkhL_hyi-17">
          <mxGeometry x="-0.3851" relative="1" as="geometry">
            <mxPoint as="offset" />
          </mxGeometry>
        </mxCell>
        <mxCell id="QVx1Jq6RDN-TnkhL_hyi-18" value="&lt;div&gt;Медицинские&lt;/div&gt;&lt;div&gt;данные&lt;/div&gt;&amp;nbsp;пациента" style="endArrow=classic;html=1;rounded=0;" edge="1" parent="1" source="QVx1Jq6RDN-TnkhL_hyi-2" target="QVx1Jq6RDN-TnkhL_hyi-16">
          <mxGeometry width="50" height="50" relative="1" as="geometry">
            <mxPoint x="890" y="680" as="sourcePoint" />
            <mxPoint x="1020" y="485" as="targetPoint" />
          </mxGeometry>
        </mxCell>
        <mxCell id="QVx1Jq6RDN-TnkhL_hyi-21" value="&lt;div&gt;Перс.данные&lt;/div&gt;" style="endArrow=classic;html=1;rounded=0;" edge="1" parent="1" source="QVx1Jq6RDN-TnkhL_hyi-7" target="QVx1Jq6RDN-TnkhL_hyi-9">
          <mxGeometry width="50" height="50" relative="1" as="geometry">
            <mxPoint x="770" y="335" as="sourcePoint" />
            <mxPoint x="674" y="335" as="targetPoint" />
            <Array as="points">
              <mxPoint x="710" y="380" />
            </Array>
          </mxGeometry>
        </mxCell>
        <mxCell id="QVx1Jq6RDN-TnkhL_hyi-22" value="&lt;div&gt;Перс.данные&lt;/div&gt;&lt;div&gt;клиентов&lt;/div&gt;" style="endArrow=classic;html=1;rounded=1;curved=0;" edge="1" parent="1" source="QVx1Jq6RDN-TnkhL_hyi-9" target="QVx1Jq6RDN-TnkhL_hyi-64">
          <mxGeometry x="-0.8905" y="29" width="50" height="50" relative="1" as="geometry">
            <mxPoint x="574" y="335" as="sourcePoint" />
            <mxPoint x="616" y="630" as="targetPoint" />
            <Array as="points">
              <mxPoint x="510" y="270" />
            </Array>
            <mxPoint as="offset" />
          </mxGeometry>
        </mxCell>
        <mxCell id="QVx1Jq6RDN-TnkhL_hyi-23" value="&lt;div&gt;Перс.данные&lt;/div&gt;&lt;div&gt;клиентов&lt;/div&gt;" style="endArrow=classic;html=1;rounded=1;curved=0;" edge="1" parent="1" source="QVx1Jq6RDN-TnkhL_hyi-12" target="QVx1Jq6RDN-TnkhL_hyi-53">
          <mxGeometry x="-0.474" y="22" width="50" height="50" relative="1" as="geometry">
            <mxPoint x="770" y="175" as="sourcePoint" />
            <mxPoint x="700" y="50" as="targetPoint" />
            <mxPoint as="offset" />
          </mxGeometry>
        </mxCell>
        <mxCell id="QVx1Jq6RDN-TnkhL_hyi-24" value="&lt;div&gt;Перс.данные&lt;/div&gt;&lt;div&gt;пациента&lt;/div&gt;" style="endArrow=classic;html=1;rounded=1;curved=0;" edge="1" parent="1" source="QVx1Jq6RDN-TnkhL_hyi-2" target="QVx1Jq6RDN-TnkhL_hyi-4">
          <mxGeometry x="-0.7923" y="-23" width="50" height="50" relative="1" as="geometry">
            <mxPoint x="775" y="360" as="sourcePoint" />
            <mxPoint x="668" y="360" as="targetPoint" />
            <Array as="points">
              <mxPoint x="530" y="480" />
            </Array>
            <mxPoint as="offset" />
          </mxGeometry>
        </mxCell>
        <mxCell id="QVx1Jq6RDN-TnkhL_hyi-26" value="&lt;div&gt;Система контроля доступа&lt;/div&gt;" style="html=1;dashed=0;whiteSpace=wrap;" vertex="1" parent="1">
          <mxGeometry x="760" y="690" width="100" height="50" as="geometry" />
        </mxCell>
        <mxCell id="QVx1Jq6RDN-TnkhL_hyi-27" value="&lt;div&gt;Все&lt;/div&gt;&lt;div&gt;данные&lt;/div&gt;" style="endArrow=classic;html=1;rounded=0;" edge="1" parent="1" source="QVx1Jq6RDN-TnkhL_hyi-4" target="QVx1Jq6RDN-TnkhL_hyi-26">
          <mxGeometry width="50" height="50" relative="1" as="geometry">
            <mxPoint x="760" y="400" as="sourcePoint" />
            <mxPoint x="810" y="350" as="targetPoint" />
          </mxGeometry>
        </mxCell>
        <mxCell id="QVx1Jq6RDN-TnkhL_hyi-28" value="&lt;div&gt;Контроль&lt;/div&gt;&lt;div&gt;доступа&lt;/div&gt;" style="shape=ellipse;html=1;dashed=0;whiteSpace=wrap;aspect=fixed;perimeter=ellipsePerimeter;" vertex="1" parent="1">
          <mxGeometry x="940" y="685" width="60" height="60" as="geometry" />
        </mxCell>
        <mxCell id="QVx1Jq6RDN-TnkhL_hyi-29" value="&lt;div&gt;Все&lt;/div&gt;&lt;div&gt;данные&lt;/div&gt;" style="endArrow=classic;html=1;rounded=0;" edge="1" parent="1" source="QVx1Jq6RDN-TnkhL_hyi-26" target="QVx1Jq6RDN-TnkhL_hyi-28">
          <mxGeometry width="50" height="50" relative="1" as="geometry">
            <mxPoint x="880" y="670" as="sourcePoint" />
            <mxPoint x="930" y="620" as="targetPoint" />
          </mxGeometry>
        </mxCell>
        <mxCell id="QVx1Jq6RDN-TnkhL_hyi-30" value="&lt;div&gt;Медицинские&lt;/div&gt;&lt;div&gt;данные&lt;/div&gt;" style="endArrow=classic;html=1;rounded=0;" edge="1" parent="1" source="QVx1Jq6RDN-TnkhL_hyi-28" target="QVx1Jq6RDN-TnkhL_hyi-2">
          <mxGeometry x="0.8436" y="45" width="50" height="50" relative="1" as="geometry">
            <mxPoint x="760" y="400" as="sourcePoint" />
            <mxPoint x="810" y="350" as="targetPoint" />
            <mxPoint y="1" as="offset" />
          </mxGeometry>
        </mxCell>
        <mxCell id="QVx1Jq6RDN-TnkhL_hyi-31" value="Все данные" style="endArrow=classic;html=1;rounded=0;" edge="1" parent="1" source="QVx1Jq6RDN-TnkhL_hyi-4" target="QVx1Jq6RDN-TnkhL_hyi-1">
          <mxGeometry width="50" height="50" relative="1" as="geometry">
            <mxPoint x="760" y="400" as="sourcePoint" />
            <mxPoint x="810" y="350" as="targetPoint" />
          </mxGeometry>
        </mxCell>
        <mxCell id="QVx1Jq6RDN-TnkhL_hyi-32" value="&lt;div align=&quot;left&quot;&gt;&lt;b&gt;Медицинские данные&lt;/b&gt;:&lt;/div&gt;&lt;div align=&quot;left&quot;&gt;&lt;br&gt;&lt;/div&gt;&lt;div&gt;- мед.карты&lt;/div&gt;&lt;div&gt;- истории болезни&lt;/div&gt;&lt;div&gt;- мед.исследования&lt;/div&gt;" style="text;html=1;align=left;verticalAlign=middle;resizable=0;points=[];autosize=1;strokeColor=none;fillColor=none;" vertex="1" parent="1">
          <mxGeometry x="1210" y="-60" width="160" height="90" as="geometry" />
        </mxCell>
        <mxCell id="QVx1Jq6RDN-TnkhL_hyi-33" value="&lt;div align=&quot;left&quot;&gt;&lt;b&gt;Финансовые данные&lt;/b&gt;:&lt;/div&gt;&lt;div align=&quot;left&quot;&gt;Клиента:&lt;/div&gt;&lt;div&gt;- фин.история&lt;/div&gt;&lt;div&gt;- счета&lt;/div&gt;&lt;div&gt;- данные о кредитах&lt;/div&gt;&lt;div&gt;&lt;br&gt;&lt;/div&gt;&lt;div&gt;Компании:&lt;/div&gt;&lt;div&gt;- фин.отчетность&lt;/div&gt;" style="text;html=1;align=left;verticalAlign=middle;resizable=0;points=[];autosize=1;strokeColor=none;fillColor=none;" vertex="1" parent="1">
          <mxGeometry x="1210" y="45" width="150" height="130" as="geometry" />
        </mxCell>
        <mxCell id="QVx1Jq6RDN-TnkhL_hyi-34" value="&lt;div align=&quot;left&quot;&gt;&lt;b&gt;Перс.данные&lt;/b&gt;:&lt;/div&gt;&lt;div align=&quot;left&quot;&gt;&lt;br&gt;&lt;/div&gt;&lt;div&gt;Клиентов:&lt;/div&gt;&lt;div&gt;- не описаны. Скорее-всего данные паспорта&lt;/div&gt;&lt;div&gt;&lt;br&gt;&lt;/div&gt;&lt;div&gt;Сотрудников:&lt;/div&gt;&lt;div&gt;- данные по персоналу больницы&lt;/div&gt;&lt;div&gt;&lt;br&gt;&lt;/div&gt;" style="text;html=1;align=left;verticalAlign=middle;resizable=0;points=[];autosize=1;strokeColor=none;fillColor=none;" vertex="1" parent="1">
          <mxGeometry x="1210" y="190" width="280" height="130" as="geometry" />
        </mxCell>
        <mxCell id="QVx1Jq6RDN-TnkhL_hyi-35" value="&lt;div&gt;&lt;b&gt;Другие данные&lt;/b&gt;&lt;/div&gt;&lt;div&gt;- данные по инвертаризации&lt;/div&gt;" style="text;html=1;align=left;verticalAlign=middle;resizable=0;points=[];autosize=1;strokeColor=none;fillColor=none;" vertex="1" parent="1">
          <mxGeometry x="1210" y="340" width="180" height="40" as="geometry" />
        </mxCell>
        <mxCell id="QVx1Jq6RDN-TnkhL_hyi-36" value="Головной офис" style="html=1;dashed=0;whiteSpace=wrap;" vertex="1" parent="1">
          <mxGeometry x="20" y="-200" width="100" height="50" as="geometry" />
        </mxCell>
        <mxCell id="QVx1Jq6RDN-TnkhL_hyi-37" value="Другие данные" style="endArrow=classic;html=1;rounded=0;" edge="1" parent="1" source="QVx1Jq6RDN-TnkhL_hyi-36" target="QVx1Jq6RDN-TnkhL_hyi-59">
          <mxGeometry width="50" height="50" relative="1" as="geometry">
            <mxPoint x="1850" y="1440" as="sourcePoint" />
            <mxPoint x="990" y="1150" as="targetPoint" />
          </mxGeometry>
        </mxCell>
        <mxCell id="QVx1Jq6RDN-TnkhL_hyi-53" value="Команда исследователей" style="html=1;dashed=0;whiteSpace=wrap;" vertex="1" parent="1">
          <mxGeometry x="464" y="-20" width="100" height="50" as="geometry" />
        </mxCell>
        <mxCell id="QVx1Jq6RDN-TnkhL_hyi-55" value="Мед.данные" style="endArrow=classic;html=1;rounded=1;curved=0;" edge="1" parent="1" source="QVx1Jq6RDN-TnkhL_hyi-53" target="QVx1Jq6RDN-TnkhL_hyi-4">
          <mxGeometry x="0.8026" y="-28" width="50" height="50" relative="1" as="geometry">
            <mxPoint x="574" y="140" as="sourcePoint" />
            <mxPoint x="80" y="130" as="targetPoint" />
            <Array as="points">
              <mxPoint x="230" y="30" />
              <mxPoint x="200" y="290" />
            </Array>
            <mxPoint as="offset" />
          </mxGeometry>
        </mxCell>
        <mxCell id="QVx1Jq6RDN-TnkhL_hyi-56" value="Мед.данные" style="endArrow=classic;html=1;rounded=1;curved=0;" edge="1" parent="1" source="QVx1Jq6RDN-TnkhL_hyi-12" target="QVx1Jq6RDN-TnkhL_hyi-53">
          <mxGeometry x="-0.474" y="22" width="50" height="50" relative="1" as="geometry">
            <mxPoint x="810" y="150" as="sourcePoint" />
            <mxPoint x="570" y="40" as="targetPoint" />
            <mxPoint as="offset" />
            <Array as="points">
              <mxPoint x="800" y="50" />
            </Array>
          </mxGeometry>
        </mxCell>
        <mxCell id="QVx1Jq6RDN-TnkhL_hyi-57" value="&lt;div&gt;Перс.данные&lt;/div&gt;&lt;div&gt;клиентов&lt;/div&gt;" style="endArrow=classic;html=1;rounded=1;curved=0;" edge="1" parent="1" source="QVx1Jq6RDN-TnkhL_hyi-53" target="QVx1Jq6RDN-TnkhL_hyi-1">
          <mxGeometry x="0.9249" y="-43" width="50" height="50" relative="1" as="geometry">
            <mxPoint x="305" y="30" as="sourcePoint" />
            <mxPoint x="409" y="620" as="targetPoint" />
            <Array as="points">
              <mxPoint x="200" y="5" />
              <mxPoint x="200" y="290" />
            </Array>
            <mxPoint as="offset" />
          </mxGeometry>
        </mxCell>
        <mxCell id="QVx1Jq6RDN-TnkhL_hyi-59" value="Команда исследователей" style="html=1;dashed=0;whiteSpace=wrap;" vertex="1" parent="1">
          <mxGeometry x="20" y="-20" width="100" height="50" as="geometry" />
        </mxCell>
        <mxCell id="QVx1Jq6RDN-TnkhL_hyi-60" value="Другие данные" style="endArrow=classic;html=1;rounded=0;" edge="1" parent="1" source="QVx1Jq6RDN-TnkhL_hyi-59" target="QVx1Jq6RDN-TnkhL_hyi-1">
          <mxGeometry x="0.7362" y="-52" width="50" height="50" relative="1" as="geometry">
            <mxPoint x="780" y="300" as="sourcePoint" />
            <mxPoint x="340" y="670" as="targetPoint" />
            <Array as="points">
              <mxPoint x="200" y="290" />
            </Array>
            <mxPoint as="offset" />
          </mxGeometry>
        </mxCell>
        <mxCell id="QVx1Jq6RDN-TnkhL_hyi-61" value="&lt;div&gt;Перс.данные&lt;/div&gt;&lt;div&gt;клиентов&lt;/div&gt;" style="endArrow=classic;html=1;rounded=1;curved=0;" edge="1" parent="1" source="QVx1Jq6RDN-TnkhL_hyi-53" target="QVx1Jq6RDN-TnkhL_hyi-4">
          <mxGeometry x="-0.8594" y="-35" width="50" height="50" relative="1" as="geometry">
            <mxPoint x="474" y="15" as="sourcePoint" />
            <mxPoint x="571" y="930" as="targetPoint" />
            <Array as="points">
              <mxPoint x="200" y="5" />
              <mxPoint x="200" y="290" />
            </Array>
            <mxPoint as="offset" />
          </mxGeometry>
        </mxCell>
        <mxCell id="QVx1Jq6RDN-TnkhL_hyi-62" value="Мед.данные" style="endArrow=classic;html=1;rounded=1;curved=0;" edge="1" parent="1" source="QVx1Jq6RDN-TnkhL_hyi-53" target="QVx1Jq6RDN-TnkhL_hyi-1">
          <mxGeometry x="-0.9076" y="26" width="50" height="50" relative="1" as="geometry">
            <mxPoint x="464" y="9" as="sourcePoint" />
            <mxPoint x="537" y="665" as="targetPoint" />
            <Array as="points">
              <mxPoint x="230" y="30" />
              <mxPoint x="200" y="290" />
            </Array>
            <mxPoint as="offset" />
          </mxGeometry>
        </mxCell>
        <mxCell id="QVx1Jq6RDN-TnkhL_hyi-63" value="Другие данные" style="endArrow=classic;html=1;rounded=0;" edge="1" parent="1" source="QVx1Jq6RDN-TnkhL_hyi-59" target="QVx1Jq6RDN-TnkhL_hyi-4">
          <mxGeometry x="-0.9744" y="-50" width="50" height="50" relative="1" as="geometry">
            <mxPoint x="91" y="40" as="sourcePoint" />
            <mxPoint x="571" y="930" as="targetPoint" />
            <Array as="points">
              <mxPoint x="200" y="290" />
            </Array>
            <mxPoint as="offset" />
          </mxGeometry>
        </mxCell>
        <mxCell id="QVx1Jq6RDN-TnkhL_hyi-64" value="Команда исследователей" style="html=1;dashed=0;whiteSpace=wrap;" vertex="1" parent="1">
          <mxGeometry x="414" y="200" width="100" height="50" as="geometry" />
        </mxCell>
        <mxCell id="QVx1Jq6RDN-TnkhL_hyi-66" value="" style="endArrow=classic;html=1;rounded=1;curved=0;" edge="1" parent="1" source="QVx1Jq6RDN-TnkhL_hyi-64" target="QVx1Jq6RDN-TnkhL_hyi-4">
          <mxGeometry width="50" height="50" relative="1" as="geometry">
            <mxPoint x="780" y="480" as="sourcePoint" />
            <mxPoint x="830" y="430" as="targetPoint" />
            <Array as="points">
              <mxPoint x="200" y="290" />
            </Array>
          </mxGeometry>
        </mxCell>
        <mxCell id="QVx1Jq6RDN-TnkhL_hyi-67" value="Фин.данные" style="endArrow=classic;html=1;rounded=1;curved=0;" edge="1" parent="1" source="QVx1Jq6RDN-TnkhL_hyi-64" target="QVx1Jq6RDN-TnkhL_hyi-4">
          <mxGeometry x="0.4821" y="-26" width="50" height="50" relative="1" as="geometry">
            <mxPoint x="424" y="247" as="sourcePoint" />
            <mxPoint x="547" y="675" as="targetPoint" />
            <Array as="points">
              <mxPoint x="200" y="290" />
            </Array>
            <mxPoint x="1" as="offset" />
          </mxGeometry>
        </mxCell>
        <mxCell id="QVx1Jq6RDN-TnkhL_hyi-68" value="Фин.данные" style="endArrow=classic;html=1;rounded=1;curved=0;" edge="1" parent="1" source="QVx1Jq6RDN-TnkhL_hyi-64" target="QVx1Jq6RDN-TnkhL_hyi-1">
          <mxGeometry x="-0.9598" y="19" width="50" height="50" relative="1" as="geometry">
            <mxPoint x="424" y="247" as="sourcePoint" />
            <mxPoint x="557" y="685" as="targetPoint" />
            <Array as="points">
              <mxPoint x="200" y="290" />
            </Array>
            <mxPoint as="offset" />
          </mxGeometry>
        </mxCell>
        <mxCell id="QVx1Jq6RDN-TnkhL_hyi-69" value="Команда исследователей" style="html=1;dashed=0;whiteSpace=wrap;" vertex="1" parent="1">
          <mxGeometry x="1080" y="685" width="100" height="50" as="geometry" />
        </mxCell>
        <mxCell id="QVx1Jq6RDN-TnkhL_hyi-70" value="" style="endArrow=classic;html=1;rounded=0;" edge="1" parent="1" source="QVx1Jq6RDN-TnkhL_hyi-69" target="QVx1Jq6RDN-TnkhL_hyi-1">
          <mxGeometry width="50" height="50" relative="1" as="geometry">
            <mxPoint x="780" y="720" as="sourcePoint" />
            <mxPoint x="830" y="670" as="targetPoint" />
          </mxGeometry>
        </mxCell>
        <mxCell id="QVx1Jq6RDN-TnkhL_hyi-72" value="&lt;div&gt;Медицинские&lt;/div&gt;&lt;div&gt;данные&lt;/div&gt;&amp;nbsp;пациента" style="edgeLabel;html=1;align=center;verticalAlign=middle;resizable=0;points=[];" vertex="1" connectable="0" parent="QVx1Jq6RDN-TnkhL_hyi-70">
          <mxGeometry x="-0.7573" y="1" relative="1" as="geometry">
            <mxPoint x="-53" y="66" as="offset" />
          </mxGeometry>
        </mxCell>
        <mxCell id="QVx1Jq6RDN-TnkhL_hyi-73" value="" style="endArrow=classic;html=1;rounded=0;" edge="1" parent="1" source="QVx1Jq6RDN-TnkhL_hyi-69" target="QVx1Jq6RDN-TnkhL_hyi-4">
          <mxGeometry width="50" height="50" relative="1" as="geometry">
            <mxPoint x="1090" y="740" as="sourcePoint" />
            <mxPoint x="617" y="930" as="targetPoint" />
            <Array as="points">
              <mxPoint x="1130" y="1150" />
              <mxPoint x="80" y="1140" />
              <mxPoint x="70" y="280" />
              <mxPoint x="200" y="290" />
            </Array>
          </mxGeometry>
        </mxCell>
        <mxCell id="QVx1Jq6RDN-TnkhL_hyi-74" value="&lt;div&gt;Медицинские&lt;/div&gt;&lt;div&gt;данные&lt;/div&gt;&amp;nbsp;пациента" style="edgeLabel;html=1;align=center;verticalAlign=middle;resizable=0;points=[];" vertex="1" connectable="0" parent="QVx1Jq6RDN-TnkhL_hyi-73">
          <mxGeometry x="-0.7573" y="1" relative="1" as="geometry">
            <mxPoint x="49" y="-284" as="offset" />
          </mxGeometry>
        </mxCell>
      </root>
    </mxGraphModel>
  </diagram>
</mxfile>
